#!OML:ASF F:\VICON\USERDATA\INSTALL\rory3\rory3.ASF
:FULLY-SPECIFIED
:DEGREES
1126
root 13.1877 17.6737 -3.39895 -171.766 226.299 -180.395
lowerback 2.52324 -2.93532 -3.81604
upperback 0.898889 -4.02832 5.02446
thorax 0.14453 -2.07504 7.45874
lowerneck -8.32245 -4.00298 -12.3484
upperneck 38.7266 -4.73806 0.965817
head 15.3884 -4.04023 1.77295
rclavicle 1.14699e-013 -1.74931e-014
rhumerus -36.0231 -7.97496 -71.5016
rradius 36.154
rwrist 18.3765
rhand -21.3006 3.42151
rfingers 7.12502
rthumb 5.08411 -26.4975
lclavicle 1.14699e-013 -1.74931e-014
lhumerus -31.6332 9.55081 83.978
lradius 36.3538
lwrist -4.28879
lhand -13.6945 22.7107
lfingers 7.12502
lthumb 12.4237 52.3215
rfemur -19.2068 1.02105 20.8025
rtibia 35.6726
rfoot -21.0314 -0.668861
rtoes 2.88847
lfemur -13.6387 1.24277 -17.0435
ltibia 34.9876
lfoot -14.5381 27.2326
ltoes -9.77411
1127
root 13.1362 17.6822 -3.41893 -171.765 226.697 -180.448
lowerback 2.56933 -2.94334 -3.82969
upperback 0.963147 -4.04175 4.99803
thorax 0.186354 -2.08484 7.43901
lowerneck -8.42264 -3.94343 -12.3062
upperneck 38.868 -4.72695 1.14121
head 15.482 -4.01604 1.83906
rclavicle -1.13705e-013 3.33958e-014
rhumerus -35.8896 -7.83146 -71.685
rradius 36.3236
rwrist 18.3203
rhand -21.4079 3.46661
rfingers 7.12502
rthumb 4.98054 -26.4549
lclavicle -1.13705e-013 3.33958e-014
lhumerus -31.3454 9.24537 84.1725
lradius 35.9305
lwrist -5.05
lhand -13.7871 22.2854
lfingers 7.12502
lthumb 12.3344 51.9016
rfemur -19.0086 1.13351 21.0056
rtibia 35.4078
rfoot -20.8119 -0.487673
rtoes 3.73329
lfemur -14.0577 1.58744 -16.8146
ltibia 36.0863
lfoot -13.7618 27.1079
ltoes -10.0228
1128
root 13.0847 17.6893 -3.43995 -171.88 227.027 -180.376
lowerback 2.65127 -2.95191 -3.90208
upperback 1.0202 -4.0568 4.92056
thorax 0.201224 -2.09392 7.40114
lowerneck -8.51399 -3.91207 -12.1931
upperneck 39.018 -4.75781 1.26329
head 15.5778 -4.00626 1.86388
rclavicle 7.95139e-015 7.15625e-015
rhumerus -35.8675 -7.71034 -71.9205
rradius 36.5535
rwrist 18.2704
rhand -21.7457 3.47535
rfingers 7.12502
rthumb 4.65431 -26.4535
lclavicle 7.95139e-015 7.15625e-015
lhumerus -31.0518 8.83196 84.3387
lradius 35.5466
lwrist -5.68129
lhand -13.7529 22.0437
lfingers 7.12502
lthumb 12.3674 51.6579
rfemur -18.7674 1.31016 21.1108
rtibia 35.1422
rfoot -20.6688 -0.371246
rtoes 3.78644
lfemur -14.537 1.94191 -16.6572
ltibia 37.268
lfoot -12.8325 26.8486
ltoes -10.2028
1129
root 13.0328 17.6964 -3.46536 -171.988 227.271 -180.336
lowerback 2.80524 -3.00481 -4.01642
upperback 1.04591 -4.13398 4.90456
thorax 0.160923 -2.13286 7.45918
lowerneck -8.50228 -3.82315 -12.0306
upperneck 39.0788 -4.65932 1.20768
head 15.586 -3.95526 1.82708
rclavicle 7.35503e-015 2.22639e-014
rhumerus -35.8034 -7.60158 -72.1017
rradius 36.7283
rwrist 18.289
rhand -22.0133 3.425
rfingers 7.12502
rthumb 4.39595 -26.5094
lclavicle 7.35503e-015 2.22639e-014
lhumerus -30.8285 8.81585 84.4219
lradius 35.182
lwrist -6.4584
lhand -13.3674 21.5393
lfingers 7.12502
lthumb 12.739 51.1307
rfemur -18.497 1.64102 21.2597
rtibia 34.8714
rfoot -20.6818 -0.426747
rtoes 4.07371
lfemur -15.1036 2.25551 -16.4345
ltibia 38.5375
lfoot -12.0082 26.4318
ltoes -9.6286
1130
root 12.9767 17.7092 -3.4857 -172.11 227.64 -180.252
lowerback 2.87667 -3.07527 -4.20471
upperback 1.06602 -4.23565 4.90767
thorax 0.172363 -2.18637 7.57537
lowerneck -8.33524 -3.69121 -12.1034
upperneck 39.0091 -4.50145 1.26495
head 15.5002 -3.89591 1.89253
rclavicle -8.34896e-015 3.26007e-014
rhumerus -35.7483 -7.30134 -72.2487
rradius 36.9308
rwrist 18.2205
rhand -21.8665 3.67582
rfingers 7.12502
rthumb 4.53763 -26.2556
lclavicle -8.34896e-015 3.26007e-014
lhumerus -30.7282 8.95993 84.4765
lradius 34.9456
lwrist -7.22139
lhand -13.1835 21.4194
lfingers 7.12502
lthumb 12.9163 50.9996
rfemur -18.2274 1.90193 21.3638
rtibia 34.6254
rfoot -20.7541 -0.278815
rtoes 5.43363
lfemur -15.676 2.57634 -16.2801
ltibia 39.8481
lfoot -11.1169 26.0149
ltoes -8.8149
1131
root 12.919 17.7205 -3.50537 -172.213 228.048 -180.08
lowerback 2.864 -3.08312 -4.44351
upperback 1.04013 -4.25179 4.90022
thorax 0.172692 -2.19501 7.7052
lowerneck -8.21033 -3.61779 -12.3575
upperneck 39.0687 -4.45885 1.5046
head 15.5137 -3.89307 2.04756
rclavicle -7.05686e-014 1.59028e-014
rhumerus -35.7738 -7.08445 -72.301
rradius 37.1435
rwrist 18.0239
rhand -22.0619 3.63601
rfingers 7.12502
rthumb 4.34901 -26.2993
lclavicle -7.05686e-014 1.59028e-014
lhumerus -30.693 9.01797 84.6208
lradius 34.7809
lwrist -7.99796
lhand -13.3946 21.7361
lfingers 7.12502
lthumb 12.7128 51.3291
rfemur -18.0539 2.18148 21.3994
rtibia 34.3804
rfoot -20.6721 -0.161069
rtoes 5.82685
lfemur -16.3784 3.08922 -16.191
ltibia 41.2147
lfoot -10.0388 25.4448
ltoes -8.21889
1132
root 12.8638 17.7263 -3.52407 -172.389 228.403 -179.903
lowerback 2.87934 -3.09839 -4.65156
upperback 1.07613 -4.27847 4.85217
thorax 0.217865 -2.21172 7.77345
lowerneck -8.2374 -3.54826 -12.3791
upperneck 39.2169 -4.41389 1.63088
head 15.5937 -3.87213 2.11131
rclavicle -1.45113e-014 -6.36111e-015
rhumerus -35.7128 -7.14537 -72.3905
rradius 37.281
rwrist 18.012
rhand -22.2445 3.78854
rfingers 7.12502
rthumb 4.17268 -26.1503
lclavicle -1.45113e-014 -6.36111e-015
lhumerus -30.5943 9.17028 84.6917
lradius 34.566
lwrist -8.87012
lhand -13.775 21.4598
lfingers 7.12502
lthumb 12.3461 51.0752
rfemur -17.7978 2.39556 21.4341
rtibia 34.1038
rfoot -20.5271 -0.129824
rtoes 5.80386
lfemur -17.0573 3.58834 -16.1145
ltibia 42.6168
lfoot -8.55941 24.8086
ltoes -7.70978
1133
root 12.8116 17.7327 -3.53873 -172.488 228.677 -179.887
lowerback 2.93602 -3.16049 -4.6505
upperback 1.14645 -4.36419 4.80522
thorax 0.269678 -2.25844 7.72396
lowerneck -8.30085 -3.45312 -12.2687
upperneck 39.2809 -4.29175 1.60941
head 15.6227 -3.81352 2.10047
rclavicle -1.80894e-014 4.77083e-015
rhumerus -35.5879 -7.23856 -72.5077
rradius 37.399
rwrist 18.0932
rhand -21.9582 4.27794
rfingers 7.12502
rthumb 4.44912 -25.6553
lclavicle -1.80894e-014 4.77083e-015
lhumerus -30.4338 9.08564 84.7309
lradius 34.4085
lwrist -9.26027
lhand -13.2633 21.096
lfingers 7.12502
lthumb 12.8394 50.6811
rfemur -17.4467 2.5725 21.564
rtibia 33.7805
rfoot -20.4702 0.0476587
rtoes 6.3974
lfemur -17.7531 3.99466 -15.978
ltibia 44.0802
lfoot -7.11008 24.2845
ltoes -8.02775
1134
root 12.7584 17.7479 -3.54845 -172.436 228.926 -179.978
lowerback 2.83479 -3.1907 -4.46004
upperback 1.25554 -4.39824 4.71911
thorax 0.423172 -2.28168 7.5113
lowerneck -8.34569 -3.42791 -12.0849
upperneck 39.2753 -4.29404 1.60396
head 15.6202 -3.78949 2.06502
rclavicle -1.64991e-014 -1.11319e-014
rhumerus -35.5558 -7.42094 -72.6734
rradius 37.6817
rwrist 18.0656
rhand -21.782 4.55499
rfingers 7.12502
rthumb 4.61931 -25.3746
lclavicle -1.64991e-014 -1.11319e-014
lhumerus -30.2396 8.95809 84.7165
lradius 34.3445
lwrist -9.82063
lhand -12.3876 21.0037
lfingers 7.12502
lthumb 13.6834 50.5339
rfemur -17.117 2.71555 21.7472
rtibia 33.3955
rfoot -20.3516 0.248468
rtoes 7.24329
lfemur -18.5969 4.28135 -15.7722
ltibia 45.5903
lfoot -6.14146 23.8273
ltoes -8.2
1135
root 12.7068 17.7642 -3.55818 -172.345 229.18 -180.102
lowerback 2.82122 -3.22114 -4.29512
upperback 1.27739 -4.43458 4.67891
thorax 0.442929 -2.29947 7.372
lowerneck -8.18078 -3.35946 -12.1123
upperneck 39.1544 -4.28498 1.79826
head 15.5212 -3.76398 2.15817
rclavicle -8.46823e-014 -2.38542e-015
rhumerus -35.623 -7.43845 -72.7754
rradius 37.9583
rwrist 17.9167
rhand -21.646 4.28448
rfingers 7.12502
rthumb 4.75055 -25.6423
lclavicle -8.46823e-014 -2.38542e-015
lhumerus -30.2056 9.00388 84.7306
lradius 34.3081
lwrist -10.3357
lhand -11.7283 21.2999
lfingers 7.12502
lthumb 14.3188 50.7861
rfemur -16.8011 2.78276 21.969
rtibia 32.9738
rfoot -20.0787 0.434432
rtoes 7.25277
lfemur -19.5315 4.4352 -15.5375
ltibia 47.1423
lfoot -5.50745 23.4165
ltoes -6.43463
1136
root 12.6543 17.7732 -3.55827 -172.22 229.53 -180.294
lowerback 2.90402 -3.30515 -4.15757
upperback 1.21355 -4.54599 4.77305
thorax 0.345151 -2.35125 7.40191
lowerneck -8.20277 -3.18065 -12.2938
upperneck 39.3163 -4.02503 1.87737
head 15.593 -3.68498 2.26315
rclavicle 1.49685e-013 -5.56597e-015
rhumerus -35.7194 -7.15297 -72.7322
rradius 38.1823
rwrist 17.8194
rhand -21.5858 4.1697
rfingers 7.12502
rthumb 4.80872 -25.7557
lclavicle 1.49685e-013 -5.56597e-015
lhumerus -30.3993 9.39718 84.8492
lradius 34.3348
lwrist -10.6255
lhand -11.6771 21.7283
lfingers 7.12502
lthumb 14.3682 51.211
rfemur -16.4644 2.72922 22.1852
rtibia 32.5498
rfoot -19.6698 0.788432
rtoes 6.91411
lfemur -20.4139 4.67436 -15.3331
ltibia 48.7089
lfoot -4.87566 22.9612
ltoes -2.66704
1137
root 12.6096 17.7791 -3.57618 -172.021 229.679 -180.556
lowerback 2.78691 -3.25449 -3.832
upperback 1.41061 -4.47191 4.7162
thorax 0.572312 -2.32343 7.13871
lowerneck -8.48274 -3.25359 -12.2083
upperneck 39.3803 -4.14609 1.9782
head 15.7017 -3.70792 2.26919
rclavicle -1.74931e-014 2.38542e-015
rhumerus -35.4742 -7.61218 -72.8453
rradius 38.2988
rwrist 17.4992
rhand -21.6224 3.986
rfingers 7.12502
rthumb 4.77334 -25.9402
lclavicle -1.74931e-014 2.38542e-015
lhumerus -29.9741 9.10077 85.0128
lradius 34.3338
lwrist -10.6815
lhand -11.6478 21.6645
lfingers 7.12502
lthumb 14.3964 51.1453
rfemur -16.2098 2.78995 22.5279
rtibia 32.1456
rfoot -19.4462 0.825601
rtoes 6.37458
lfemur -21.4508 4.90138 -15.008
ltibia 50.2484
lfoot -4.31755 22.4498
ltoes 0.110991
1138
root 12.57 17.7803 -3.59602 -171.744 229.825 -180.94
lowerback 3.12447 -3.32028 -3.62859
upperback 1.30537 -4.55957 4.82292
thorax 0.280506 -2.35628 7.16381
lowerneck -8.44871 -3.14648 -12.1448
upperneck 39.4632 -3.98107 1.86623
head 15.7149 -3.65276 2.23526
rclavicle 4.90998e-014 -1.82882e-014
rhumerus -35.5018 -7.36491 -72.9583
rradius 38.3563
rwrist 17.1498
rhand -21.8006 4.13542
rfingers 7.12502
rthumb 4.60128 -25.7946
lclavicle 4.90998e-014 -1.82882e-014
lhumerus -30.1285 9.30144 85.0706
lradius 34.4307
lwrist -10.8127
lhand -11.5529 21.5537
lfingers 7.12502
lthumb 14.4878 51.0279
rfemur -15.9837 2.9417 22.9628
rtibia 31.7659
rfoot -19.1957 0.752118
rtoes 6.01569
lfemur -22.4979 5.04563 -14.5894
ltibia 51.7277
lfoot -4.0797 22.0625
ltoes 0.568523
1139
root 12.5264 17.784 -3.60105 -171.762 230.089 -181.105
lowerback 3.33639 -3.31318 -3.44394
upperback 1.33376 -4.54938 4.86199
thorax 0.178271 -2.34862 7.11351
lowerneck -8.44053 -3.12173 -12.1709
upperneck 39.4917 -3.90885 1.76201
head 15.7208 -3.64337 2.20527
rclavicle -7.91163e-014 1.35174e-014
rhumerus -35.4799 -7.17583 -72.94
rradius 38.4394
rwrist 16.9176
rhand -21.7435 4.53184
rfingers 7.12502
rthumb 4.65645 -25.397
lclavicle -7.91163e-014 1.35174e-014
lhumerus -30.1539 9.42731 85.2429
lradius 34.533
lwrist -10.8434
lhand -11.6734 21.5276
lfingers 7.12502
lthumb 14.3717 51.0101
rfemur -15.5802 3.10807 23.1767
rtibia 31.4146
rfoot -18.91 0.828641
rtoes 5.15993
lfemur -23.2612 5.18897 -14.4097
ltibia 53.0902
lfoot -4.20086 21.5691
ltoes -0.274168
1140
root 12.4769 17.7927 -3.59665 -171.733 230.478 -181.254
lowerback 3.38662 -3.30306 -3.23852
upperback 1.35436 -4.53086 4.84473
thorax 0.15076 -2.33764 6.98024
lowerneck -8.41432 -3.06138 -12.1211
upperneck 39.4667 -3.81491 1.69485
head 15.6888 -3.60725 2.18204
rclavicle -6.36111e-015 1.35174e-014
rhumerus -35.5394 -7.14722 -72.8845
rradius 38.539
rwrist 16.8622
rhand -21.5056 5.29303
rfingers 7.12502
rthumb 4.88618 -24.6306
lclavicle -6.36111e-015 1.35174e-014
lhumerus -30.2463 9.3656 85.3427
lradius 34.6315
lwrist -10.494
lhand -11.7385 21.6341
lfingers 7.12502
lthumb 14.309 51.1211
rfemur -15.2014 3.07177 23.3177
rtibia 31.1066
rfoot -18.5623 1.35344
rtoes 4.93762
lfemur -23.9596 5.51727 -14.3301
ltibia 54.338
lfoot -4.636 20.79
ltoes -1.44805
